<svg viewBox="0 0 335 155" version="1.1" xmlns="http://www.w3.org/2000/svg" xmlns:xlink="http://www.w3.org/1999/xlink">
    <!-- Generator: Sketch 43.2 (39069) - http://www.bohemiancoding.com/sketch -->
    <desc>Created with Sketch.</desc>
    <defs></defs>
    <g id="Page-1" stroke="none" stroke-width="1" fill="none" fill-rule="evenodd">
        <text id="Grocery" font-family="ProximaNova-Regular, Proxima Nova" font-size="96" font-weight="normal" fill="#555151">
            <tspan x="-3.212" y="66">Grocery</tspan>
        </text>
        <text id="BLISS" font-family="ProximaNova-Semibold, Proxima Nova" font-size="96" font-weight="500" fill="#E780E5">
            <tspan x="87.104" y="153">BLISS</tspan>
        </text>
        <g id="Group" transform="translate(10.000000, 89.000000)" fill-rule="nonzero" fill="#555151">
            <g id="groceries">
                <path d="M35.1319415,52.697076 C35.7379064,52.697076 36.2297544,52.206386 36.2297544,51.5992632 C36.2297544,50.9932982 35.7379064,50.5014503 35.1319415,50.5014503 L2.19626901,50.5014503 L2.19626901,21.3149123 L2.51790643,21.6365497 C2.94709942,22.0657427 3.64106433,22.0657427 4.07025731,21.6365497 L5.48983626,20.2169708 L6.9094152,21.6365497 C7.33873684,22.0657427 8.0325731,22.0657427 8.46176608,21.6365497 L9.88134503,20.2169708 L11.300924,21.6365497 C11.7302456,22.0657427 12.4240819,22.0657427 12.8532749,21.6365497 L14.2728538,20.2169708 L15.6924327,21.6365497 C16.1217544,22.0657427 16.8155906,22.0657427 17.2447836,21.6365497 L18.6643626,20.2169708 L20.0839415,21.6365497 C20.5132632,22.0657427 21.2070994,22.0657427 21.6362924,21.6365497 L23.0558713,20.2169708 L24.4754503,21.6365497 C24.9047719,22.0657427 25.5986082,22.0657427 26.0278012,21.6365497 L27.4473801,20.2169708 L28.8669591,21.6365497 C29.2962807,22.0657427 29.990117,22.0657427 30.4193099,21.6365497 L31.8388889,20.2169708 L33.2584678,21.6365497 C33.6877895,22.0657427 34.3816257,22.0657427 34.8108187,21.6365497 C35.2401404,21.2072281 35.2401404,20.5133918 34.8108187,20.0841988 L32.6150643,17.8884444 C32.1857427,17.4591228 31.4919064,17.4591228 31.0627135,17.8884444 L29.6431345,19.3080234 L28.2235556,17.8884444 C27.7943626,17.4591228 27.1003977,17.4591228 26.6712047,17.8884444 L25.2516257,19.3080234 L23.8320468,17.8884444 C23.4027251,17.4591228 22.7088889,17.4591228 22.2796959,17.8884444 L20.860117,19.3080234 L19.440538,17.8884444 C19.0112164,17.4591228 18.3173801,17.4591228 17.8881871,17.8884444 L16.4686082,19.3080234 L15.0490292,17.8884444 C14.6197076,17.4591228 13.9258713,17.4591228 13.4966784,17.8884444 L12.0770994,19.3080234 L10.6575205,17.8884444 C10.2281988,17.4591228 9.53436257,17.4591228 9.10516959,17.8884444 L7.68559064,19.3080234 L6.2660117,17.8884444 C5.83681871,17.4591228 5.1428538,17.4591228 4.71366082,17.8884444 L3.29408187,19.3080234 L1.87450292,17.8884444 C1.5594269,17.5743977 1.08842105,17.4800936 0.677883041,17.6501754 C0.268374269,17.820386 0.000514619883,18.2210175 0.000514619883,18.6646199 L0.000514619883,60.3820234 C0.000514619883,63.4088889 2.46309942,65.871345 5.48983626,65.871345 L35.1319415,65.871345 C35.7379064,65.871345 36.2297544,65.380655 36.2297544,64.7735322 C36.2297544,64.1675673 35.7379064,63.6757193 35.1319415,63.6757193 L5.48983626,63.6757193 C3.674,63.6757193 2.19626901,62.1991462 2.19626901,60.382152 L2.19626901,52.697076 L35.1319415,52.697076 Z" id="Shape"></path>
                <path d="M2.25442105,3.8074152 C2.44766082,5.34664327 3.13274854,11.4901754 2.22920468,15.1043509 C2.08215205,15.6928187 2.43994152,16.2888772 3.02738012,16.4360585 C3.1174386,16.4590877 3.20633918,16.4689942 3.29523977,16.4689942 C3.78708772,16.4689942 4.23390643,16.1362924 4.35908772,15.637883 C4.92015205,13.3960702 4.94099415,10.4175789 4.81581287,7.92321637 C6.54930994,11.8239064 6.58777778,15.3260234 6.58777778,15.3722105 C6.58996491,15.9781754 7.08065497,16.4678363 7.68559064,16.4678363 L7.68674854,16.4678363 C8.29271345,16.4678363 8.78353216,15.9771462 8.78353216,15.3710526 C8.78353216,15.1470643 8.74069006,10.9280819 6.50440936,6.35323977 C10.8793216,9.87851462 10.9781287,15.1053801 10.9792865,15.3732398 C10.9804444,15.9792047 11.4721637,16.4688655 12.0770994,16.4688655 C12.6830643,16.4688655 13.1749123,15.9770175 13.1749123,15.3710526 C13.1749123,15.2766199 13.0552632,5.97126316 3.9277076,2.37574269 L2.9725731,1.42060819 C2.54325146,0.99128655 1.8494152,0.99128655 1.42022222,1.42060819 C0.990900585,1.84980117 0.990900585,2.54376608 1.42022222,2.97295906 L2.25442105,3.8074152 Z" id="Shape"></path>
                <path d="M37.3276959,6.5882924 C37.3276959,5.37842105 36.3429708,4.39253801 35.1319415,4.39150877 L17.5651345,4.39150877 C16.3552632,4.39266667 15.370538,5.37842105 15.370538,6.5882924 L15.370538,15.3711813 C15.370538,15.9783041 15.862386,16.4689942 16.4683509,16.4689942 C17.0743158,16.4689942 17.5661637,15.9783041 17.5661637,15.3711813 L17.5661637,6.5871345 L30.7404327,6.5882924 L30.7404327,15.3711813 C30.7404327,15.9783041 31.2322807,16.4689942 31.8382456,16.4689942 C32.4442105,16.4689942 32.9360585,15.9783041 32.9360585,15.3711813 L32.9360585,6.5882924 L35.1318129,6.5882924 L35.1318129,14.2732398 C35.1318129,14.8792047 35.6236608,15.3710526 36.2296257,15.3710526 C36.8355906,15.3710526 37.3274386,14.8792047 37.3274386,14.2732398 L37.3274386,6.5882924 L37.3276959,6.5882924 Z" id="Shape"></path>
                <path d="M46.1104561,41.7195906 L54.893345,41.7195906 C55.4993099,41.7195906 55.9911579,41.2277427 55.9911579,40.6217778 C55.9911579,40.0158129 55.4993099,39.5239649 54.893345,39.5239649 L46.1104561,39.5239649 C45.5044912,39.5239649 45.0126433,40.0158129 45.0126433,40.6217778 C45.0126433,41.2277427 45.5044912,41.7195906 46.1104561,41.7195906 Z" id="Shape"></path>
                <path d="M65.2077427,32.3297076 C65.5030058,31.7380234 65.8719883,31.0001871 65.8719883,29.6432632 L65.8719883,20.8603743 C65.8719883,17.6854269 64.0034035,14.8561754 60.8734854,13.2907018 L57.0892281,11.3990877 L57.0892281,8.78288889 C58.3001287,8.78288889 59.2849825,7.79919298 59.2849825,6.5871345 L59.2849825,2.19575439 C59.2847251,0.984725146 58.3,0 57.0890994,0 L46.1105848,0 C44.8996842,0 43.9148304,0.984725146 43.9148304,2.19575439 L43.9148304,6.5871345 C43.9148304,7.79919298 44.8995556,8.78288889 46.1105848,8.78288889 L46.1105848,11.3990877 L42.3263275,13.2907018 C39.1962807,14.8563041 37.3278246,17.6854269 37.3278246,20.8603743 L37.3278246,29.6432632 C37.3278246,31.0001871 37.6966784,31.7380234 37.9930994,32.3297076 C38.2444912,32.8324912 38.4256374,33.1959415 38.4256374,34.0346433 L38.4256374,51.6002924 C38.4256374,52.4389942 38.2444912,52.8024444 37.9930994,53.3052281 C37.6966784,53.8969123 37.3278246,54.6347485 37.3278246,55.9916725 L37.3278246,60.3830526 C37.3278246,63.4097895 39.7902807,65.8723743 42.8171462,65.8723743 L43.9149591,65.8723743 C45.2433216,65.8723743 46.2611111,65.0545146 47.2085263,64.1311579 C48.1559415,65.0545146 49.173731,65.8723743 50.5020936,65.8723743 L52.697848,65.8723743 C54.0262105,65.8723743 55.044,65.0545146 55.9914152,64.1311579 C56.9388304,65.0545146 57.9566199,65.8723743 59.2849825,65.8723743 L60.3827953,65.8723743 C63.4095322,65.8723743 65.872117,63.4099181 65.872117,60.3830526 L65.872117,55.9916725 C65.872117,54.6347485 65.5032632,53.8969123 65.2078713,53.3052281 C64.9564795,52.8024444 64.7741754,52.4389942 64.7741754,51.6002924 L64.7741754,34.0346433 C64.7740468,33.1958129 64.9563509,32.8324912 65.2077427,32.3297076 Z M46.1104561,2.19575439 L57.0889708,2.19575439 L57.0901287,6.5871345 L54.893345,6.5871345 L54.893345,5.49035088 C54.893345,4.88438596 54.4014971,4.39253801 53.7955322,4.39253801 C53.1895673,4.39253801 52.6977193,4.88438596 52.6977193,5.49035088 L52.6977193,6.5871345 L50.5019649,6.5871345 L50.5019649,5.49035088 C50.5019649,4.88438596 50.010117,4.39253801 49.404152,4.39253801 C48.7981871,4.39253801 48.3063392,4.88438596 48.3063392,5.49035088 L48.3063392,6.5871345 L46.1105848,6.5871345 L46.1105848,2.19575439 L46.1104561,2.19575439 Z M63.6762339,29.6432632 C63.6762339,30.4819649 63.4950877,30.8454152 63.2436959,31.3481988 C62.9472749,31.939883 62.5784211,32.6777193 62.5784211,34.0346433 L62.5784211,50.5014503 L43.9148304,50.5014503 C43.3088655,50.5014503 42.8170175,50.9932982 42.8170175,51.5992632 C42.8170175,52.206386 43.3088655,52.697076 43.9148304,52.697076 L62.6826316,52.697076 C62.8110292,53.3909123 63.0405497,53.8816023 63.2436959,54.2867368 C63.4950877,54.7895205 63.6762339,55.1529708 63.6762339,55.9916725 L63.6762339,60.3830526 C63.6762339,62.1988889 62.1985029,63.6766199 60.3826667,63.6766199 L59.2848538,63.6766199 C58.6261404,63.6766199 57.852152,62.8960702 57.0321053,62.0693333 L56.767462,61.8025029 C56.5621287,61.5961404 56.2821754,61.4808655 55.9912865,61.4808655 C55.7003977,61.4808655 55.4214737,61.5961404 55.2151111,61.8025029 L54.9504678,62.0693333 C54.1304211,62.8960702 53.3564327,63.6766199 52.6977193,63.6766199 L50.5019649,63.6766199 C49.8432515,63.6766199 49.0692632,62.8960702 48.2492164,62.0693333 L47.9845731,61.8025029 C47.5728772,61.390807 46.8439181,61.390807 46.4322222,61.8025029 L46.1675789,62.0693333 C45.3475322,62.8960702 44.5735439,63.6766199 43.9148304,63.6766199 L42.8170175,63.6766199 C41.0011813,63.6766199 39.5234503,62.1988889 39.5234503,60.3830526 L39.5234503,55.9916725 C39.5234503,55.1529708 39.7057544,54.7895205 39.9571462,54.2867368 C40.2524094,53.6950526 40.6213918,52.9572164 40.6213918,51.6002924 L40.6213918,35.1314269 L59.2849825,35.1314269 C59.8909474,35.1314269 60.3827953,34.6407368 60.3827953,34.033614 C60.3827953,33.4276491 59.8909474,32.9358012 59.2849825,32.9358012 L40.516924,32.9358012 C40.3885263,32.2429942 40.1590058,31.753462 39.9570175,31.3483275 C39.7056257,30.8455439 39.5233216,30.4820936 39.5233216,29.6433918 L39.5233216,20.8605029 C39.5233216,17.5098129 42.170269,15.8246901 43.3075789,15.2559064 L47.6989591,13.060152 C48.0711579,12.8734737 48.3060819,12.4936842 48.3060819,12.077614 L48.3060819,8.78404678 L54.8932164,8.78404678 L54.8932164,12.077614 C54.8932164,12.4936842 55.1281404,12.8736023 55.5003392,13.060152 L59.8917193,15.2559064 C61.0291579,15.8245614 63.6759766,17.5098129 63.6759766,20.8605029 L63.6759766,29.6432632 L63.6762339,29.6432632 Z" id="Shape"></path>
                <path d="M57.0890994,43.915345 L46.1105848,43.915345 C45.5046199,43.915345 45.0127719,44.407193 45.0127719,45.0131579 C45.0127719,45.6191228 45.5046199,46.1109708 46.1105848,46.1109708 L57.0890994,46.1109708 C57.6950643,46.1109708 58.1869123,45.6191228 58.1869123,45.0131579 C58.1869123,44.407193 57.6950643,43.915345 57.0890994,43.915345 Z" id="Shape"></path>
            </g>
            <path d="M27.5742146,34.1150233 C27.3465001,31.7303878 25.5724879,30.0002854 23.3523474,30.0002854 C21.8732538,30.0002854 20.5189681,30.7575799 19.7569199,31.9713062 C19.0017721,30.7418802 17.7029899,30 16.2475978,30 C14.0277573,30 12.253445,31.7301024 12.0260306,34.1147378 C12.0080295,34.2200683 11.9342248,34.7744089 12.158639,35.6784238 C12.4820595,36.9823518 13.2291068,38.1683897 14.3184757,39.1075147 L19.7533196,43.8 L25.2814695,39.1078002 C26.3708384,38.1683897 27.1178857,36.9826373 27.4413061,35.6784238 C27.6657203,34.7746944 27.5919157,34.2203537 27.5742146,34.1150233 Z M26.8571692,35.5476885 C26.5619505,36.738579 25.8776072,37.8235681 24.8800441,38.6833385 L19.7569199,43.032144 L14.7217012,38.6844803 C13.722338,37.8229972 13.0382947,36.7382935 12.742776,35.547403 C12.5303625,34.6919144 12.6176681,34.2086503 12.6179681,34.2055104 L12.6224684,34.1766801 C12.8174807,32.0874837 14.3418772,30.5708967 16.2475978,30.5708967 C17.6537868,30.5708967 18.8916651,31.3929879 19.4791023,32.716041 L19.7554198,33.3391747 L20.0317373,32.716041 C20.6098738,31.4132547 21.9131563,30.5711821 23.3526474,30.5711821 C25.258068,30.5711821 26.7827645,32.0877692 26.9816771,34.2040832 C26.9822771,34.2086503 27.0695826,34.6921998 26.8571692,35.5476885 Z" id="Shape"></path>
        </g>
    </g>
</svg>
